<svg version="1.2" xmlns="http://www.w3.org/2000/svg" viewBox="0 0 2560 1440" width="2560" height="1440">
	<defs>
		<linearGradient id="g1" x2="1" gradientUnits="userSpaceOnUse" gradientTransform="matrix(2560,0,0,1440,0,720)">
			<stop offset="0" stop-color="#ecced7"/>
			<stop offset="1" stop-color="#f6e7eb"/>
		</linearGradient>
	</defs>
	<style>
		.s0 { opacity: .3;fill: #a20a35 } 
	</style>
	<rect width="2560" height="1440" id="Gradient Fill 1" style="fill: url(#g1)"/>
	<path id="Path 130" fill-rule="evenodd" class="s0" d="m1479.22 886.14l-265.64-266.5h199.6l199.05 199.34c0 0 25.79 144.8-64.77 268.33-68.41 93.3-154.97 123.44-266.37 131.72-67.6-0.26-136.02-21.77-202.75-69.48-189.36-135.28-131.45-396.86-131.45-396.86l133.39 133.22c0 0-4.55 198.79 200.06 198.79 211.7 0 198.88-198.56 198.88-198.56zm-398.94-332.54l265.64 266.48h-199.6l-199.05-199.31c0 0-25.79-144.81 64.76-268.33 68.42-93.31 154.98-123.44 266.37-131.72 67.61 0.23 135.99 21.77 202.76 69.45 189.33 135.31 131.45 396.86 131.45 396.86l-133.39-133.19c0 0 4.54-198.8-200.07-198.8-211.69 0-198.87 198.56-198.87 198.56z"/>
</svg>